<?xml version="1.0" encoding="UTF-8" standalone="no"?>
<svg
   xmlns:dc="http://purl.org/dc/elements/1.1/"
   xmlns:cc="http://creativecommons.org/ns#"
   xmlns:rdf="http://www.w3.org/1999/02/22-rdf-syntax-ns#"
   xmlns:svg="http://www.w3.org/2000/svg"
   xmlns="http://www.w3.org/2000/svg"
   xmlns:sodipodi="http://sodipodi.sourceforge.net/DTD/sodipodi-0.dtd"
   xmlns:inkscape="http://www.inkscape.org/namespaces/inkscape"
   viewBox="0 0 700 700"
   version="1.1"
   id="svg11"
   sodipodi:docname="dazn-logo-2020.svg"
   inkscape:version="1.0.2-2 (e86c870879, 2021-01-15)"
   width="700"
   height="700"
   inkscape:export-filename="C:\Users\suitedoalex\sites\dazn-logo-0.png"
   inkscape:export-xdpi="561.73999"
   inkscape:export-ydpi="561.73999">
  <metadata
     id="metadata15">
    <rdf:RDF>
      <cc:Work
         rdf:about="">
        <dc:format>image/svg+xml</dc:format>
        <dc:type
           rdf:resource="http://purl.org/dc/dcmitype/StillImage" />
        <dc:title />
      </cc:Work>
    </rdf:RDF>
  </metadata>
  <sodipodi:namedview
     pagecolor="#ffffff"
     bordercolor="#666666"
     borderopacity="1"
     objecttolerance="10"
     gridtolerance="10"
     guidetolerance="10"
     inkscape:pageopacity="0"
     inkscape:pageshadow="2"
     inkscape:window-width="1920"
     inkscape:window-height="1009"
     id="namedview13"
     showgrid="false"
     inkscape:zoom="0.70710678"
     inkscape:cx="214.77315"
     inkscape:cy="339.20082"
     inkscape:window-x="1912"
     inkscape:window-y="-8"
     inkscape:window-maximized="1"
     inkscape:current-layer="svg11"
     inkscape:document-rotation="0" />
  <defs
     id="defs3">
    <path
       id="a"
       d="M 0.012,0.008 H 80 V 80 H 0.012 Z"
       inkscape:connector-curvature="0" />
  </defs>
  <path
     style="fill:#ffffff;stroke:none;stroke-width:8.58539px;stroke-linecap:butt;stroke-linejoin:miter;stroke-opacity:1"
     d="m 19.462483,28.047833 643.904287,-2.146343 -2.14635,266.14711 -40.78067,53.6587 40.78067,45.07331 2.14635,274.73251 L 23.755185,676.24485 15.169646,403.6587 66.682035,352.14634 17.315989,294.19496 Z"
     id="path836-6"
     inkscape:connector-curvature="0"
     inkscape:export-filename="C:\Users\suitedoalex\sites\dazn-logo-5.png"
     inkscape:export-xdpi="94.391304"
     inkscape:export-ydpi="94.391304" />
  <path
     inkscape:connector-curvature="0"
     d="m 429.38917,243.8588 22.08153,-74.30656 22.62253,74.30656 z m 110.11618,64.90556 -57.95142,-175.37379 c -1.29636,-3.86342 -2.76445,-6.40469 -4.41289,-7.59807 -1.66551,-1.19336 -4.33565,-1.80292 -8.0101,-1.80292 h -32.02359 c -3.67459,0 -6.37885,0.66107 -8.13898,1.9403 -1.74275,1.27921 -3.17654,3.77757 -4.27546,7.46069 l -58.50949,175.37379 c -0.73829,0.91864 -1.09892,2.74733 -1.09892,5.50323 0,4.24977 2.57568,6.36179 7.72689,6.36179 h 24.01334 c 2.20636,0 3.99225,-0.0859 5.37438,-0.26616 a 6.0097738,6.0097738 0 0 0 3.31397,-1.39942 c 0.83291,-0.72116 1.56253,-1.83726 2.21506,-3.30536 0.63531,-1.4767 1.32211,-3.40841 2.06056,-5.79515 l 9.10902,-30.64984 h 65.97019 l 9.36663,30.09179 c 0.7383,2.57561 1.46807,4.60176 2.20651,6.08705 0.72977,1.45951 1.56255,2.60995 2.48976,3.43415 a 6.078457,6.078457 0 0 0 3.30528,1.53678 c 1.28784,0.17172 2.94483,0.26616 4.96244,0.26616 h 25.67034 c 5.15119,0 7.72685,-2.11202 7.72685,-6.35319 0,-1.28781 -0.0427,-2.16353 -0.12949,-2.60997 a 25.653149,25.653149 0 0 0 -0.97017,-2.90186 z m -28.44347,70.59767 h -18.5014 c -4.78217,0 -7.95873,0.68683 -9.52126,2.06051 -1.56253,1.39941 -2.33527,4.20683 -2.33527,8.43083 V 493.977 L 426.05799,389.6044 c -2.20653,-4.43006 -4.37862,-7.23748 -6.49052,-8.43086 -2.1206,-1.19336 -5.83816,-1.80292 -11.1696,-1.80292 h -17.11924 c -4.78219,0 -7.95874,0.70401 -9.52127,2.07766 -1.56252,1.39084 -2.34379,4.19826 -2.34379,8.42226 v 175.63994 c 0,4.24977 0.72977,7.04003 2.20637,8.43086 1.47676,1.37367 4.60181,2.06908 9.38385,2.06908 h 18.77623 c 4.77352,0 7.95006,-0.69541 9.51274,-2.06049 1.55385,-1.39942 2.34379,-4.18968 2.34379,-8.43945 V 461.11213 l 54.64599,104.67309 c 2.20636,4.43006 4.3614,7.23748 6.49052,8.43085 2.11205,1.20196 5.83814,1.79435 11.16959,1.79435 h 17.11925 c 4.78219,0 7.95006,-0.69541 9.52128,-2.06049 1.55398,-1.39942 2.34379,-4.18968 2.34379,-8.43945 V 389.86197 c 0,-4.22401 -0.78981,-7.04002 -2.34379,-8.42226 -1.57122,-1.37368 -4.73909,-2.06909 -9.52983,-2.06909 z m 91.65774,-16.6299 47.64888,47.64893 V 650.35131 H 49.648723 V 410.35529 L 97.2461,362.7493 c 7.04005,-7.04003 7.04005,-18.45 0,-25.48143 L 49.640028,289.64469 V 49.640092 H 650.35996 V 289.60177 l -47.64902,47.64893 c -7.03991,7.04001 -7.03991,18.45 0,25.49001 z M 693.41571,6.5843572 H 6.5842762 V 310.31833 L 46.266035,350 6.5842762,389.68167 V 693.41564 H 693.41571 V 389.68167 L 653.73397,350 693.41571,310.31833 Z M 311.94957,535.1182 h -77.59483 l 81.69859,-114.87253 c 1.28786,-1.83728 2.12062,-3.32255 2.48975,-4.42148 0.36916,-1.09892 0.54954,-2.38674 0.54954,-3.86342 v -22.0988 c 0,-4.22401 -0.78996,-7.04002 -2.35248,-8.42226 -1.56253,-1.37368 -4.7563,-2.06909 -9.55556,-2.06909 H 189.22134 c -4.24972,0 -7.00562,0.78126 -8.30199,2.33523 -1.28784,1.57112 -1.94037,4.83357 -1.94037,9.82168 v 16.56981 c 0,4.96235 0.64384,8.24198 1.94037,9.78734 1.28767,1.57971 4.05227,2.36099 8.30199,2.36099 h 72.82134 L 181.4602,535.1182 c -2.03483,2.5842 -3.05651,5.16841 -3.05651,7.72685 v 22.66543 c 0,4.24119 0.78996,7.03144 2.36102,8.42228 1.56252,1.37366 4.75629,2.06907 9.55555,2.06907 h 121.62062 c 4.24119,0 7.01431,-0.78986 8.31068,-2.33522 1.28785,-1.57113 1.94037,-4.83358 1.94037,-9.82169 v -16.56981 c 0,-4.96235 -0.65253,-8.2248 -1.94037,-9.78734 -1.28784,-1.57971 -4.06948,-2.36957 -8.31068,-2.36957 z M 275.83073,242.18466 c 0,7.55515 -0.49787,13.87398 -1.51102,18.93078 -1.013,5.05679 -2.66144,9.1692 -4.96228,12.29429 -2.30099,3.12507 -5.34011,5.32294 -9.10917,6.62791 -3.77758,1.28781 -8.42218,1.93171 -13.93399,1.93171 H 223.6832 V 162.64959 h 22.63107 c 10.48277,0 18.02072,3.10792 22.62252,9.26363 4.59311,6.15573 6.89394,16.338 6.89394,30.52107 z m 39.47561,-79.80121 c -6.43902,-13.08415 -15.23037,-22.7513 -26.35714,-28.99288 -11.13512,-6.26733 -25.16377,-9.39241 -42.08557,-9.39241 h -56.57764 c -4.78204,0 -7.95876,0.68683 -9.52981,2.06049 -1.554,1.39942 -2.34379,4.20685 -2.34379,8.43085 v 175.63994 c 0,4.24977 0.78979,7.04001 2.35232,8.43085 1.56252,1.37366 4.73924,2.06909 9.52128,2.06909 h 63.47175 c 29.98878,0 50.50791,-12.79224 61.5486,-38.38529 2.57568,-5.88959 4.3701,-11.82209 5.37455,-17.82327 1.01299,-5.98401 1.51956,-13.5735 1.51956,-22.76845 v -37.28636 c 0,-10.49994 -0.50657,-18.78484 -1.51956,-24.85471 a 63.085455,63.085455 0 0 0 -5.37455,-17.12785 z"
     mask="url(#b)"
     id="path9"
     style="fill:#000000;stroke-width:8.58539"
     inkscape:export-filename="C:\Users\suitedoalex\sites\dazn-logo-5.png"
     inkscape:export-xdpi="94.391304"
     inkscape:export-ydpi="94.391304" />
</svg>
