<?xml version="1.0" encoding="UTF-8"?>
<svg version="1.1" viewBox="0 0 700 700" xmlns="http://www.w3.org/2000/svg" xmlns:cc="http://creativecommons.org/ns#" xmlns:dc="http://purl.org/dc/elements/1.1/" xmlns:rdf="http://www.w3.org/1999/02/22-rdf-syntax-ns#">
<metadata>
<rdf:RDF>
<cc:Work rdf:about="">
<dc:format>image/svg+xml</dc:format>
<dc:type rdf:resource="http://purl.org/dc/dcmitype/StillImage"/>
<dc:title/>
</cc:Work>
</rdf:RDF>
</metadata>
<path d="m19.462 28.048 643.9-2.1463-2.1464 266.15-40.781 53.659 40.781 45.073 2.1464 274.73-639.61 10.732-8.5855-272.59 51.512-51.512-49.366-57.951z" fill="#fff"/>
<path d="m429.39 243.86 22.082-74.307 22.623 74.307zm110.12 64.906-57.951-175.37c-1.2964-3.8634-2.7644-6.4047-4.4129-7.5981-1.6655-1.1934-4.3356-1.8029-8.0101-1.8029h-32.024c-3.6746 0-6.3788 0.66107-8.139 1.9403-1.7428 1.2792-3.1765 3.7776-4.2755 7.4607l-58.509 175.37c-0.73829 0.91864-1.0989 2.7473-1.0989 5.5032 0 4.2498 2.5757 6.3618 7.7269 6.3618h24.013c2.2064 0 3.9922-0.0859 5.3744-0.26616a6.0098 6.0098 0 0 0 3.314-1.3994c0.83291-0.72116 1.5625-1.8373 2.2151-3.3054 0.63531-1.4767 1.3221-3.4084 2.0606-5.7952l9.109-30.65h65.97l9.3666 30.092c0.7383 2.5756 1.4681 4.6018 2.2065 6.087 0.72977 1.4595 1.5626 2.61 2.4898 3.4342a6.0785 6.0785 0 0 0 3.3053 1.5368c1.2878 0.17172 2.9448 0.26616 4.9624 0.26616h25.67c5.1512 0 7.7268-2.112 7.7268-6.3532 0-1.2878-0.0427-2.1635-0.12949-2.61a25.653 25.653 0 0 0-0.97017-2.9019zm-28.443 70.598h-18.501c-4.7822 0-7.9587 0.68683-9.5213 2.0605-1.5625 1.3994-2.3353 4.2068-2.3353 8.4308v104.12l-54.646-104.37c-2.2065-4.4301-4.3786-7.2375-6.4905-8.4309-2.1206-1.1934-5.8382-1.8029-11.17-1.8029h-17.119c-4.7822 0-7.9587 0.70401-9.5213 2.0777-1.5625 1.3908-2.3438 4.1983-2.3438 8.4223v175.64c0 4.2498 0.72977 7.04 2.2064 8.4309 1.4768 1.3737 4.6018 2.0691 9.3838 2.0691h18.776c4.7735 0 7.9501-0.69541 9.5127-2.0605 1.5538-1.3994 2.3438-4.1897 2.3438-8.4394v-104.4l54.646 104.67c2.2064 4.4301 4.3614 7.2375 6.4905 8.4308 2.112 1.202 5.8381 1.7944 11.17 1.7944h17.119c4.7822 0 7.9501-0.69541 9.5213-2.0605 1.554-1.3994 2.3438-4.1897 2.3438-8.4394v-175.65c0-4.224-0.78981-7.04-2.3438-8.4223-1.5712-1.3737-4.7391-2.0691-9.5298-2.0691zm91.658-16.63 47.649 47.649v239.97h-600.72v-240l47.597-47.606c7.04-7.04 7.04-18.45 0-25.481l-47.606-47.623v-240h600.72v239.96l-47.649 47.649c-7.0399 7.04-7.0399 18.45 0 25.49zm90.696-356.15h-686.83v303.73l39.682 39.682-39.682 39.682v303.73h686.83v-303.73l-39.682-39.682 39.682-39.682zm-381.47 528.53h-77.595l81.699-114.87c1.2879-1.8373 2.1206-3.3226 2.4898-4.4215 0.36916-1.0989 0.54954-2.3867 0.54954-3.8634v-22.099c0-4.224-0.78996-7.04-2.3525-8.4223-1.5625-1.3737-4.7563-2.0691-9.5556-2.0691h-117.96c-4.2497 0-7.0056 0.78126-8.302 2.3352-1.2878 1.5711-1.9404 4.8336-1.9404 9.8217v16.57c0 4.9624 0.64384 8.242 1.9404 9.7873 1.2877 1.5797 4.0523 2.361 8.302 2.361h72.821l-80.582 114.87c-2.0348 2.5842-3.0565 5.1684-3.0565 7.7268v22.665c0 4.2412 0.78996 7.0314 2.361 8.4223 1.5625 1.3737 4.7563 2.0691 9.5556 2.0691h121.62c4.2412 0 7.0143-0.78986 8.3107-2.3352 1.2878-1.5711 1.9404-4.8336 1.9404-9.8217v-16.57c0-4.9624-0.65253-8.2248-1.9404-9.7873-1.2878-1.5797-4.0695-2.3696-8.3107-2.3696zm-36.119-292.93c0 7.5552-0.49787 13.874-1.511 18.931-1.013 5.0568-2.6614 9.1692-4.9623 12.294-2.301 3.1251-5.3401 5.3229-9.1092 6.6279-3.7776 1.2878-8.4222 1.9317-13.934 1.9317h-22.631v-119.32h22.631c10.483 0 18.021 3.1079 22.623 9.2636 4.5931 6.1557 6.8939 16.338 6.8939 30.521zm39.476-79.801c-6.439-13.084-15.23-22.751-26.357-28.993-11.135-6.2673-25.164-9.3924-42.086-9.3924h-56.578c-4.782 0-7.9588 0.68683-9.5298 2.0605-1.554 1.3994-2.3438 4.2068-2.3438 8.4308v175.64c0 4.2498 0.78979 7.04 2.3523 8.4308 1.5625 1.3737 4.7392 2.0691 9.5213 2.0691h63.472c29.989 0 50.508-12.792 61.549-38.385 2.5757-5.8896 4.3701-11.822 5.3746-17.823 1.013-5.984 1.5196-13.574 1.5196-22.768v-37.286c0-10.5-0.50657-18.785-1.5196-24.855a63.085 63.085 0 0 0-5.3746-17.128z" mask="url(#b)" stroke-width="8.5854"/>
</svg>
