<?xml version="1.0" encoding="UTF-8" standalone="no"?>
<svg
   xmlns:dc="http://purl.org/dc/elements/1.1/"
   xmlns:cc="http://creativecommons.org/ns#"
   xmlns:rdf="http://www.w3.org/1999/02/22-rdf-syntax-ns#"
   xmlns:svg="http://www.w3.org/2000/svg"
   xmlns="http://www.w3.org/2000/svg"
   xmlns:sodipodi="http://sodipodi.sourceforge.net/DTD/sodipodi-0.dtd"
   xmlns:inkscape="http://www.inkscape.org/namespaces/inkscape"
   version="1.1"
   id="svg865"
   width="122.97189"
   height="120.33203"
   viewBox="0 0 122.97189 120.33203" 
   sodipodi:docname="cinema.svg"
   inkscape:version="1.0.2-2 (e86c870879, 2021-01-15)">
  <metadata
     id="metadata871">
    <rdf:RDF>
      <cc:Work
         rdf:about="">
        <dc:format>image/svg+xml</dc:format>
        <dc:type
           rdf:resource="http://purl.org/dc/dcmitype/StillImage" />
        <dc:title></dc:title>
      </cc:Work>
    </rdf:RDF>
  </metadata>
  <defs
     id="defs869" />
  <sodipodi:namedview
     pagecolor="#000000"
     bordercolor="#666666"
     borderopacity="1"
     objecttolerance="10"
     gridtolerance="10"
     guidetolerance="10"
     inkscape:pageopacity="0"
     inkscape:pageshadow="2"
     inkscape:window-width="1920"
     inkscape:window-height="1009"
     id="namedview867"
     showgrid="false"
     fit-margin-top="0"
     fit-margin-left="0"
     fit-margin-right="0"
     fit-margin-bottom="0"
     inkscape:zoom="4.21"
     inkscape:cx="28.222736"
     inkscape:cy="54.049328"
     inkscape:window-x="1912"
     inkscape:window-y="-8"
     inkscape:window-maximized="1"
     inkscape:current-layer="g873" />
  <g
     inkscape:groupmode="layer"
     inkscape:label="Image"
     id="g873"
     transform="translate(-38.785921,-35.724609)">
    <path
       id="rect1438"
       style="fill:#fefefe;fill-opacity:1;stroke:#000000;stroke-width:0;stroke-linecap:square;stroke-linejoin:round;stroke-opacity:0;paint-order:markers fill stroke"
       d="M 59.607422,76.021484 85.238281,100.69141 H 62.060547 L 40.855469,80.087891 v 68.595699 c 7e-6,4.08497 3.288075,7.37305 7.373047,7.37305 H 154.38477 c 4.08497,0 7.37302,-3.28808 7.37304,-7.37305 V 100.69141 H 149.23438 L 123.8418,76.021484 h -20.5293 l 25.63086,24.669926 H 105.76562 L 80.375,76.021484 Z m 87.171878,0 14.97851,14.416016 V 76.021484 Z" />
    <path
       id="rect1452"
       style="fill:#fefefe;fill-opacity:1;stroke:#000000;stroke-width:0;stroke-linecap:square;stroke-linejoin:round;stroke-opacity:0;paint-order:markers fill stroke"
       d="M 142.10547,35.724609 121.3125,38.832031 99.890625,67.439453 120.44727,64.367188 Z m 16.51367,4.357422 -15.66602,20.919922 14.14258,-2.113281 c 2.34821,-0.350942 3.95641,-2.52289 3.60547,-4.871094 z m -59.628906,2.085938 -19.9375,2.978515 -21.421875,28.609375 19.701172,-2.945312 z m -42.3125,6.322265 -14.238281,2.128907 c -2.348204,0.350941 -3.95641,2.524841 -3.605469,4.873047 l 2.072266,13.859374 z" />
  </g>
</svg>
