<?xml version="1.0" encoding="UTF-8" standalone="no"?>
<svg
   xmlns:dc="http://purl.org/dc/elements/1.1/"
   xmlns:cc="http://creativecommons.org/ns#"
   xmlns:rdf="http://www.w3.org/1999/02/22-rdf-syntax-ns#"
   xmlns:svg="http://www.w3.org/2000/svg"
   xmlns="http://www.w3.org/2000/svg"
   xmlns:sodipodi="http://sodipodi.sourceforge.net/DTD/sodipodi-0.dtd"
   xmlns:inkscape="http://www.inkscape.org/namespaces/inkscape"
   version="1.1"
   id="svg1473"
   width="138.7664"
   height="126.1375"
   viewBox="0 0 138.7664 126.1375"
   sodipodi:docname="sport.svg"
   inkscape:version="1.0.2-2 (e86c870879, 2021-01-15)">
  <metadata
     id="metadata1479">
    <rdf:RDF>
      <cc:Work
         rdf:about="">
        <dc:format>image/svg+xml</dc:format>
        <dc:type
           rdf:resource="http://purl.org/dc/dcmitype/StillImage" />
        <dc:title></dc:title>
      </cc:Work>
    </rdf:RDF>
  </metadata>
  <defs
     id="defs1477" />
  <sodipodi:namedview
     pagecolor="#000000"
     bordercolor="#666666"
     borderopacity="1"
     objecttolerance="10"
     gridtolerance="10"
     guidetolerance="10"
     inkscape:pageopacity="0"
     inkscape:pageshadow="2"
     inkscape:window-width="1920"
     inkscape:window-height="1009"
     id="namedview1475"
     showgrid="false"
     fit-margin-top="0"
     fit-margin-left="0"
     fit-margin-right="0"
     fit-margin-bottom="0"
     inkscape:zoom="2.105"
     inkscape:cx="103.24522"
     inkscape:cy="43.716477"
     inkscape:window-x="1912"
     inkscape:window-y="-8"
     inkscape:window-maximized="1"
     inkscape:current-layer="g1481" />
  <g
     inkscape:groupmode="layer"
     inkscape:label="Image"
     id="g1481"
     transform="translate(-52.234672,-33.230297)">
    <path
       id="rect2046"
       style="fill:#ffffff;fill-opacity:1;stroke:#000000;stroke-width:0.2;stroke-linecap:square;stroke-linejoin:round;stroke-opacity:0;paint-order:markers fill stroke"
       d="m 96.906937,33.330297 c -7.25784,0 -13.099609,5.843724 -13.099609,13.101562 V 54.7092 H 59.291703 c -3.854,0 -6.957031,2.52015 -6.957031,5.65039 v 11.52735 c -10e-7,18.68542 22.438838,34.43164 45.449218,34.43164 2.99162,6.61403 13.38281,8.92948 13.38281,19.97461 0,11.04513 -6.7108,11.58008 -10.98633,11.58008 -4.275525,0 -16.507808,0.47463 -16.507808,15.91406 v 3.29688 c 0,1.20964 1.291674,2.18359 2.896484,2.18359 h 70.097664 c 1.60481,0 2.89648,-0.97395 2.89648,-2.18359 v -3.29688 c 0,-15.43943 -12.23228,-15.91406 -16.50781,-15.91406 -4.27553,0 -10.98633,-0.53495 -10.98633,-11.58008 0,-11.04513 10.39119,-13.36058 13.38281,-19.97461 23.01038,0 45.44922,-15.74622 45.44922,-34.43164 V 60.35959 c 0,-3.13024 -3.10303,-5.65039 -6.95703,-5.65039 h -24.51562 v -8.277341 c 0,-7.257838 -5.84177,-13.101562 -13.09961,-13.101562 z M 61.494828,64.68576 h 22.3125 c 0,19.62421 5.507812,30.37305 5.507812,30.37305 C 79.45765,94.46499 61.494828,84.30992 61.494828,72.31467 Z m 97.933602,0 h 22.3125 v 7.62891 c 0,11.99525 -17.96282,22.15032 -27.82031,22.74414 0,0 5.50781,-10.74884 5.50781,-30.37305 z"
       sodipodi:nodetypes="cscscccssccccccsscccscscccccscccscc" />
  </g>
</svg>
