<?xml version="1.0" encoding="UTF-8" standalone="no"?>
<svg
   width="169.38206mm"
   height="168.96446mm"
   viewBox="0 0 169.38206 168.96446"
   version="1.1"
   id="svg8"
   inkscape:version="1.1.2 (0a00cf5339, 2022-02-04, custom)"
   sodipodi:docname="tagaro-back.svg"
   xmlns:inkscape="http://www.inkscape.org/namespaces/inkscape"
   xmlns:sodipodi="http://sodipodi.sourceforge.net/DTD/sodipodi-0.dtd"
   xmlns:xlink="http://www.w3.org/1999/xlink"
   xmlns="http://www.w3.org/2000/svg"
   xmlns:svg="http://www.w3.org/2000/svg"
   xmlns:rdf="http://www.w3.org/1999/02/22-rdf-syntax-ns#"
   xmlns:cc="http://creativecommons.org/ns#"
   xmlns:dc="http://purl.org/dc/elements/1.1/">
  <defs
     id="defs2">
    <linearGradient
       inkscape:collect="always"
       id="linearGradient875">
      <stop
         style="stop-color:#e59c0c;stop-opacity:1"
         offset="0"
         id="stop871" />
      <stop
         style="stop-color:#ee7a0c;stop-opacity:1"
         offset="0.11767238"
         id="stop881" />
      <stop
         style="stop-color:#e94e15;stop-opacity:1"
         offset="0.21146119"
         id="stop883" />
      <stop
         style="stop-color:#e52512;stop-opacity:1"
         offset="0.2929689"
         id="stop885" />
      <stop
         style="stop-color:#df0b13;stop-opacity:1"
         offset="0.41885954"
         id="stop897" />
      <stop
         style="stop-color:#dd015b;stop-opacity:1"
         offset="0.53860754"
         id="stop879" />
      <stop
         style="stop-color:#be217c;stop-opacity:1"
         offset="0.63016748"
         id="stop887" />
      <stop
         style="stop-color:#98318a;stop-opacity:1"
         offset="0.70134836"
         id="stop895" />
      <stop
         style="stop-color:#643089;stop-opacity:1"
         offset="0.78425366"
         id="stop891" />
      <stop
         style="stop-color:#384297;stop-opacity:1"
         offset="0.85682994"
         id="stop889" />
      <stop
         style="stop-color:#0b73be;stop-opacity:1"
         offset="0.94727069"
         id="stop893" />
      <stop
         style="stop-color:#007ec7;stop-opacity:1"
         offset="1"
         id="stop873" />
    </linearGradient>
    <linearGradient
       inkscape:collect="always"
       xlink:href="#linearGradient875"
       id="linearGradient877"
       x1="19.944988"
       y1="47.106255"
       x2="189.3654"
       y2="216.28795"
       gradientUnits="userSpaceOnUse" />
  </defs>
  <sodipodi:namedview
     id="base"
     pagecolor="#ffffff"
     bordercolor="#666666"
     borderopacity="0"
     inkscape:pageopacity="0.0"
     inkscape:pageshadow="2"
     inkscape:zoom="1.8360993"
     inkscape:cx="317.79327"
     inkscape:cy="421.0012"
     inkscape:document-units="mm"
     inkscape:current-layer="text867"
     inkscape:document-rotation="0"
     showgrid="false"
     fit-margin-top="0"
     fit-margin-left="0"
     fit-margin-right="0"
     fit-margin-bottom="0"
     inkscape:window-width="1920"
     inkscape:window-height="1057"
     inkscape:window-x="-8"
     inkscape:window-y="-8"
     inkscape:window-maximized="1"
     inkscape:pagecheckerboard="0" />
  <metadata
     id="metadata5">
    <rdf:RDF>
      <cc:Work
         rdf:about="">
        <dc:format>image/svg+xml</dc:format>
        <dc:type
           rdf:resource="http://purl.org/dc/dcmitype/StillImage" />
      </cc:Work>
    </rdf:RDF>
  </metadata>
  <g
     inkscape:label="Layer 1"
     inkscape:groupmode="layer"
     id="layer1"
     transform="translate(-19.944987,-47.106254)">
    <path
       style="fill:url(#linearGradient877);fill-opacity:1;stroke:#000000;stroke-width:0;stroke-linecap:butt;stroke-linejoin:miter;stroke-miterlimit:4;stroke-dasharray:none;stroke-opacity:1"
       d="M 19.944988,47.106254 V 209.04113 c 0,5.41499 3.492529,7.02958 6.841012,7.02958 h 155.93383 c 2.93325,0 6.60722,-1.50684 6.60722,-6.23073 V 47.106255 Z"
       id="path869"
       sodipodi:nodetypes="csssscc" />
    <g
       inkscape:label="Layer 1"
       id="layer1-7"
       transform="matrix(0.87860157,0,0,0.87860157,9.8343029,61.763513)">
      <path
         id="ellipse867"
         style="fill:#ffffff;fill-opacity:1;stroke:#000000;stroke-width:0;stroke-linecap:square;stroke-linejoin:round;stroke-miterlimit:4;stroke-dasharray:none;stroke-opacity:1;paint-order:markers fill stroke"
         d="m 533.87891,11.357422 a 54.301127,52.409208 0 0 0 -54.01368,52.408203 54.301127,52.409208 0 0 0 54.30079,52.410155 54.301127,52.409208 0 0 0 54.30078,-52.410155 54.301127,52.409208 0 0 0 -54.30078,-52.408203 54.301127,52.409208 0 0 0 -0.28711,0 z m 0.28711,18.626953 a 31.582586,33.781463 0 0 1 31.58203,33.78125 31.582586,33.781463 0 0 1 -31.58203,33.78125 31.582586,33.781463 0 0 1 -31.58204,-33.78125 31.582586,33.781463 0 0 1 31.58204,-33.78125 z"
         transform="matrix(0.26458333,0,0,0.26458333,28.600847,112.89103)" />
      <path
         style="fill:#ffffff;fill-opacity:1;stroke:#000000;stroke-width:0;stroke-linecap:butt;stroke-linejoin:miter;stroke-miterlimit:4;stroke-dasharray:none;stroke-opacity:1"
         d="m 33.561784,116.36369 h 21.213914 c 0,0 1.299294,5.1263 -2.007999,5.1263 -3.307291,0 -6.543712,0 -6.543712,0 V 141.192 c 0,0 0.330729,3.35454 -6.000372,1.93712 v -21.63535 h -8.61077 c 0,0 -1.464659,-5.13008 1.948939,-5.13008 z"
         id="path847" />
      <path
         id="path849"
         style="fill:#ffffff;fill-opacity:1;stroke:#000000;stroke-width:0;stroke-linecap:butt;stroke-linejoin:miter;stroke-miterlimit:4;stroke-dasharray:none;stroke-opacity:1"
         d="m 130.23047,12.273438 c -3.66335,0.0099 -8.08877,0.523408 -13.43164,1.773437 L 79.375,112.8125 c 0,0 19.686944,8.303 23.97266,-3.21484 l 7.58984,-20.669926 39.0625,0.08984 7.76758,20.804696 c 0,0 3.39257,10.75725 24.33008,2.85546 L 147.67773,21.652344 c 0,0 -1.57276,-9.421889 -17.44726,-9.378906 z m 0.30469,23.060546 12.9375,34.998047 h -25.78907 z"
         transform="matrix(0.26458333,0,0,0.26458333,28.600847,112.89103)" />
      <path
         style="fill:#ffffff;fill-opacity:1;stroke:#000000;stroke-width:0;stroke-linecap:butt;stroke-linejoin:miter;stroke-miterlimit:4;stroke-dasharray:none;stroke-opacity:1"
         d="m 100.77197,118.31994 c 0,0 0.72169,5.18308 -4.017394,4.02575 -8.447445,-2.5939 -14.747089,-0.0358 -14.859086,7.83775 -0.111997,7.87358 9.876683,9.77181 13.856826,7.3465 v -7.67723 c 6.348624,-1.45418 5.797934,2.36235 5.797934,2.36235 v 8.53047 c -8.876196,5.87118 -25.867744,3.29311 -25.867744,-11.06999 0,-14.3631 16.975506,-15.53021 25.089464,-11.3556 z"
         id="path853"
         sodipodi:nodetypes="cczcccczc" />
      <path
         id="path857"
         style="fill:#ffffff;fill-opacity:1;stroke:#000000;stroke-width:0;stroke-linecap:butt;stroke-linejoin:miter;stroke-miterlimit:4;stroke-dasharray:none;stroke-opacity:1"
         d="m 333.34961,12.46875 c -8.8704,0 -13.62109,1.5625 -13.62109,1.5625 l -37.3379,98.61133 c 12.37879,6.23637 22.05792,2.57208 23.875,-2.91602 l 7.44922,-20.771482 39.20704,-0.0293 c 0,0 4.02594,10.924247 7.60742,20.738282 3.58148,9.81404 18.87011,5.62888 24.53906,3.21289 0,0 -32.8408,-86.549784 -35.27148,-92.673828 -2.47938,-6.246728 -7.57687,-7.734375 -16.44727,-7.734375 z m 0.0645,22.917969 12.94141,34.947265 -25.78906,0.0293 z"
         transform="matrix(0.26458333,0,0,0.26458333,28.600847,112.89103)" />
      <path
         id="path861"
         style="fill:#ffffff;fill-opacity:1;stroke:#000000;stroke-width:0;stroke-linecap:butt;stroke-linejoin:miter;stroke-miterlimit:4;stroke-dasharray:none;stroke-opacity:1"
         d="m 402.4668,12.990234 c -10.8426,0 -10.17969,8.822266 -10.17969,8.822266 v 92.45117 c 0,0 5.52567,1.29492 10.88281,1.29492 5.35714,0 11.80469,-2.20035 11.80469,-9.0625 V 77.591797 h 4.17578 c 0,0 17.5267,20.21569 25.69531,29.894533 8.16862,9.67884 18.73162,10.29328 32.07422,3.74219 L 444.43555,76.234375 c 17.41179,-4.134123 27.26172,-13.218971 27.26172,-31.189453 0,-17.970482 -12.64224,-32.054688 -38.16993,-32.054688 z m 30.65429,19.501954 c 3.17818,-0.03644 15.89258,0.590486 15.89258,12.964843 0,14.142123 -17.99414,13.509766 -17.99414,13.509766 l -16.09961,0.06445 V 32.515625 h 17.48828 c 0,0 0.25887,-0.01823 0.71289,-0.02344 z"
         transform="matrix(0.26458333,0,0,0.26458333,28.600847,112.89103)" />
    </g>
    <g
       aria-label="Dein Sky Abo-Service seit 2006"
       id="text867"
       style="font-style:normal;font-weight:normal;font-size:9.32573px;line-height:1.25;font-family:sans-serif;fill:#ffffff;fill-opacity:1;stroke:none;stroke-width:0.233144">
      <g
         aria-label="Dein Sky Abo-Service seit 2006"
         id="text1729"
         style="font-size:9.17222px;letter-spacing:-0.293687px;stroke-width:0.0503916">
        <path
           d="m 38.268287,195.52914 v 5.19968 h 1.092784 q 1.383895,0 2.024338,-0.627 0.644921,-0.62701 0.644921,-1.97956 0,-1.34358 -0.644921,-1.96611 -0.640443,-0.62701 -2.024338,-0.62701 z m -0.904682,-0.74345 h 1.858629 q 1.943722,0 2.852883,0.81063 0.90916,0.80615 0.90916,2.52594 0,1.72875 -0.913639,2.53938 -0.913639,0.81063 -2.848404,0.81063 h -1.858629 z"
           id="path11536" />
        <path
           d="m 48.387399,198.75823 v 0.40308 h -3.788916 q 0.05374,0.85093 0.510564,1.2988 0.461298,0.44338 1.280886,0.44338 0.474734,0 0.918117,-0.11644 0.447863,-0.11645 0.886768,-0.34934 v 0.77928 q -0.443384,0.18811 -0.909161,0.28664 -0.465776,0.0985 -0.944989,0.0985 -1.200271,0 -1.903415,-0.69866 -0.698665,-0.69867 -0.698665,-1.88998 0,-1.23162 0.662836,-1.95268 0.667315,-0.72554 1.795928,-0.72554 1.012169,0 1.598868,0.65388 0.591179,0.6494 0.591179,1.76906 z m -0.824067,-0.24185 q -0.009,-0.67627 -0.380683,-1.07934 -0.367247,-0.40308 -0.97634,-0.40308 -0.689708,0 -1.10622,0.38964 -0.412033,0.38964 -0.474734,1.09726 z"
           id="path11538" />
        <path
           d="m 49.446256,196.45622 h 0.824066 v 5.01605 h -0.824066 z m 0,-1.95268 h 0.824066 v 1.04352 h -0.824066 z"
           id="path11540" />
        <path
           d="m 55.870503,198.44473 v 3.02754 h -0.824067 v -3.00067 q 0,-0.7121 -0.277674,-1.06592 -0.277675,-0.35381 -0.833024,-0.35381 -0.667315,0 -1.052477,0.42547 -0.385161,0.42547 -0.385161,1.15997 v 2.83496 h -0.828545 v -5.01605 H 52.4981 v 0.77928 q 0.295589,-0.45234 0.694186,-0.67627 0.403077,-0.22394 0.927075,-0.22394 0.864375,0 1.307758,0.53744 0.443384,0.53295 0.443384,1.572 z"
           id="path11542" />
        <path
           d="m 63.886564,195.00514 v 0.88229 q -0.515042,-0.24632 -0.971861,-0.36725 -0.45682,-0.12092 -0.882289,-0.12092 -0.738973,0 -1.142049,0.28663 -0.398597,0.28664 -0.398597,0.81511 0,0.44339 0.264238,0.6718 0.268718,0.22393 1.012169,0.36277 l 0.546392,0.11196 q 1.012169,0.19258 1.491382,0.68075 0.483691,0.48369 0.483691,1.2988 0,0.97186 -0.653879,1.47347 -0.6494,0.5016 -1.907893,0.5016 -0.474734,0 -1.012169,-0.10748 -0.532956,-0.10749 -1.10622,-0.31798 v -0.93156 q 0.550871,0.30903 1.079348,0.46578 0.528478,0.15675 1.039041,0.15675 0.774801,0 1.195792,-0.30455 0.420991,-0.30454 0.420991,-0.86885 0,-0.49265 -0.304547,-0.77032 -0.300068,-0.27768 -0.989776,-0.41651 l -0.55087,-0.10749 q -1.012169,-0.20154 -1.46451,-0.63149 -0.452341,-0.42994 -0.452341,-1.19579 0,-0.88677 0.622529,-1.39733 0.627007,-0.51056 1.72427,-0.51056 0.470255,0 0.958425,0.0851 0.48817,0.0851 0.998733,0.25528 z"
           id="path11544" />
        <path
           d="m 65.339541,194.50354 h 0.828546 v 4.11585 l 2.458764,-2.16317 h 1.052476 l -2.660302,2.3468 2.772268,2.66925 h -1.07487 l -2.548336,-2.4498 v 2.4498 h -0.828546 z"
           id="path11546" />
        <path
           d="m 72.148949,201.93805 q -0.349332,0.89573 -0.680751,1.16892 -0.331418,0.2732 -0.886767,0.2732 h -0.658358 v -0.68971 h 0.483692 q 0.340375,0 0.528477,-0.16123 0.188102,-0.16123 0.416512,-0.76137 l 0.147795,-0.3762 -2.028817,-4.93544 h 0.873332 l 1.567518,3.92327 1.567518,-3.92327 h 0.873332 z"
           id="path11548" />
        <path
           d="m 80.088875,195.67694 -1.227143,3.32761 h 2.458764 z m -0.510563,-0.89125 h 1.025604 l 2.548337,6.68658 h -0.940511 l -0.609093,-1.71531 h -3.014113 l -0.609093,1.71531 h -0.953947 z"
           id="path11550" />
        <path
           d="m 87.399887,198.96872 q 0,-0.90916 -0.376204,-1.4242 -0.371726,-0.51952 -1.025605,-0.51952 -0.653879,0 -1.030083,0.51952 -0.371726,0.51504 -0.371726,1.4242 0,0.90916 0.371726,1.42869 0.376204,0.51504 1.030083,0.51504 0.653879,0 1.025605,-0.51504 0.376204,-0.51953 0.376204,-1.42869 z m -2.803618,-1.75114 q 0.25976,-0.44786 0.653879,-0.66283 0.398598,-0.21946 0.949468,-0.21946 0.913639,0 1.482425,0.72554 0.573263,0.72554 0.573263,1.90789 0,1.18236 -0.573263,1.9079 -0.568786,0.72553 -1.482425,0.72553 -0.55087,0 -0.949468,-0.21497 -0.394119,-0.21945 -0.653879,-0.66731 v 0.7524 h -0.828545 v -6.96873 h 0.828545 z"
           id="path11552" />
        <path
           d="m 91.271323,197.03396 q -0.662836,0 -1.047998,0.51952 -0.385161,0.51504 -0.385161,1.41524 0,0.90021 0.380683,1.41973 0.385161,0.51504 1.052476,0.51504 0.658358,0 1.043519,-0.51952 0.385162,-0.51952 0.385162,-1.41525 0,-0.89124 -0.385162,-1.41076 -0.385161,-0.524 -1.043519,-0.524 z m 0,-0.69867 q 1.07487,0 1.688441,0.69867 0.613571,0.69866 0.613571,1.93476 0,1.23163 -0.613571,1.93477 -0.613571,0.69866 -1.688441,0.69866 -1.079348,0 -1.69292,-0.69866 -0.609092,-0.70314 -0.609092,-1.93477 0,-1.2361 0.609092,-1.93476 0.613572,-0.69867 1.69292,-0.69867 z"
           id="path11554" />
        <path
           d="m 94.399301,198.59252 h 2.413978 v 0.73449 h -2.413978 z"
           id="path11556" />
        <path
           d="m 101.87603,195.00514 v 0.88229 q -0.51504,-0.24632 -0.97186,-0.36725 -0.45682,-0.12092 -0.88229,-0.12092 -0.738975,0 -1.142051,0.28663 -0.398598,0.28664 -0.398598,0.81511 0,0.44339 0.264239,0.6718 0.268718,0.22393 1.012169,0.36277 l 0.546391,0.11196 q 1.01217,0.19258 1.49138,0.68075 0.48369,0.48369 0.48369,1.2988 0,0.97186 -0.65388,1.47347 -0.6494,0.5016 -1.907889,0.5016 -0.474734,0 -1.012168,-0.10748 -0.532957,-0.10749 -1.10622,-0.31798 v -0.93156 q 0.55087,0.30903 1.079348,0.46578 0.528477,0.15675 1.03904,0.15675 0.774799,0 1.195789,-0.30455 0.42099,-0.30454 0.42099,-0.86885 0,-0.49265 -0.30454,-0.77032 -0.30007,-0.27768 -0.98978,-0.41651 l -0.550868,-0.10749 q -1.012169,-0.20154 -1.46451,-0.63149 -0.452341,-0.42994 -0.452341,-1.19579 0,-0.88677 0.622529,-1.39733 0.627007,-0.51056 1.724269,-0.51056 0.470251,0 0.958421,0.0851 0.48817,0.0851 0.99874,0.25528 z"
           id="path11558" />
        <path
           d="m 107.65087,198.75823 v 0.40308 h -3.78891 q 0.0537,0.85093 0.51056,1.2988 0.4613,0.44338 1.28089,0.44338 0.47473,0 0.91812,-0.11644 0.44786,-0.11645 0.88676,-0.34934 v 0.77928 q -0.44338,0.18811 -0.90916,0.28664 -0.46577,0.0985 -0.94499,0.0985 -1.20027,0 -1.90341,-0.69866 -0.69867,-0.69867 -0.69867,-1.88998 0,-1.23162 0.66284,-1.95268 0.66731,-0.72554 1.79593,-0.72554 1.01217,0 1.59887,0.65388 0.59117,0.6494 0.59117,1.76906 z m -0.82406,-0.24185 q -0.009,-0.67627 -0.38069,-1.07934 -0.36724,-0.40308 -0.97633,-0.40308 -0.68971,0 -1.10622,0.38964 -0.41204,0.38964 -0.47474,1.09726 z"
           id="path11560" />
        <path
           d="m 111.61636,197.22654 q -0.13884,-0.0806 -0.30455,-0.11644 -0.16123,-0.0403 -0.35829,-0.0403 -0.69866,0 -1.07487,0.45682 -0.37172,0.45234 -0.37172,1.30328 v 2.64238 h -0.82855 v -5.01605 h 0.82855 v 0.77928 q 0.25976,-0.45682 0.67627,-0.67627 0.41651,-0.22394 1.01217,-0.22394 0.0851,0 0.1881,0.0134 0.10301,0.009 0.22841,0.0314 z"
           id="path11562" />
        <path
           d="m 111.59587,196.45622 h 0.87333 l 1.56752,4.2099 1.56751,-4.2099 h 0.87334 l -1.88103,5.01605 h -1.11965 z"
           id="path11564" />
        <path
           d="m 117.32145,196.45622 h 0.82407 v 5.01605 h -0.82407 z m 0,-1.95268 h 0.82407 v 1.04352 h -0.82407 z"
           id="path11566" />
        <path
           d="m 123.18587,196.6488 v 0.77032 q -0.34933,-0.19258 -0.70315,-0.28663 -0.34933,-0.0985 -0.70762,-0.0985 -0.80167,0 -1.24506,0.51056 -0.44338,0.50609 -0.44338,1.4242 0,0.91812 0.44338,1.42869 0.44339,0.50608 1.24506,0.50608 0.35829,0 0.70762,-0.0941 0.35382,-0.0985 0.70315,-0.29111 v 0.76136 q -0.34486,0.16123 -0.71658,0.24185 -0.36725,0.0806 -0.78376,0.0806 -1.13309,0 -1.80041,-0.7121 -0.66731,-0.7121 -0.66731,-1.92133 0,-1.22714 0.67179,-1.93028 0.67627,-0.70315 1.84967,-0.70315 0.38069,0 0.74345,0.0806 0.36277,0.0761 0.70315,0.23289 z"
           id="path11568" />
        <path
           d="m 128.61586,198.75823 v 0.40308 h -3.78891 q 0.0537,0.85093 0.51056,1.2988 0.4613,0.44338 1.28089,0.44338 0.47473,0 0.91812,-0.11644 0.44786,-0.11645 0.88676,-0.34934 v 0.77928 q -0.44338,0.18811 -0.90916,0.28664 -0.46577,0.0985 -0.94499,0.0985 -1.20027,0 -1.90341,-0.69866 -0.69867,-0.69867 -0.69867,-1.88998 0,-1.23162 0.66284,-1.95268 0.66731,-0.72554 1.79593,-0.72554 1.01217,0 1.59887,0.65388 0.59117,0.6494 0.59117,1.76906 z m -0.82406,-0.24185 q -0.009,-0.67627 -0.38069,-1.07934 -0.36724,-0.40308 -0.97634,-0.40308 -0.6897,0 -1.10622,0.38964 -0.41203,0.38964 -0.47473,1.09726 z"
           id="path11570" />
        <path
           d="m 135.49435,196.60401 v 0.77928 q -0.34933,-0.17914 -0.72553,-0.26872 -0.37621,-0.0896 -0.77928,-0.0896 -0.61357,0 -0.9226,0.1881 -0.30455,0.18811 -0.30455,0.56431 0,0.28663 0.21946,0.45234 0.21945,0.16123 0.88229,0.30903 l 0.28215,0.0627 q 0.87781,0.1881 1.24506,0.53295 0.37172,0.34038 0.37172,0.95395 0,0.69867 -0.55535,1.10622 -0.55087,0.40755 -1.51825,0.40755 -0.40308,0 -0.84198,-0.0806 -0.43443,-0.0761 -0.91812,-0.23289 v -0.85094 q 0.45682,0.23737 0.9002,0.35829 0.44339,0.11645 0.87781,0.11645 0.58222,0 0.89573,-0.19706 0.3135,-0.20154 0.3135,-0.56431 0,-0.3359 -0.22841,-0.51504 -0.22393,-0.17915 -0.98977,-0.34485 l -0.28664,-0.0672 q -0.76584,-0.16123 -1.10622,-0.49265 -0.34037,-0.3359 -0.34037,-0.91812 0,-0.70762 0.50161,-1.09278 0.5016,-0.38517 1.4242,-0.38517 0.45682,0 0.85989,0.0672 0.40308,0.0672 0.74345,0.20154 z"
           id="path11572" />
        <path
           d="m 141.07214,198.75823 v 0.40308 h -3.78892 q 0.0538,0.85093 0.51057,1.2988 0.4613,0.44338 1.28088,0.44338 0.47474,0 0.91812,-0.11644 0.44786,-0.11645 0.88677,-0.34934 v 0.77928 q -0.44339,0.18811 -0.90916,0.28664 -0.46578,0.0985 -0.94499,0.0985 -1.20027,0 -1.90342,-0.69866 -0.69866,-0.69867 -0.69866,-1.88998 0,-1.23162 0.66283,-1.95268 0.66732,-0.72554 1.79593,-0.72554 1.01217,0 1.59887,0.65388 0.59118,0.6494 0.59118,1.76906 z m -0.82407,-0.24185 q -0.009,-0.67627 -0.38068,-1.07934 -0.36725,-0.40308 -0.97634,-0.40308 -0.68971,0 -1.10622,0.38964 -0.41203,0.38964 -0.47473,1.09726 z"
           id="path11574" />
        <path
           d="m 142.131,196.45622 h 0.82407 v 5.01605 H 142.131 Z m 0,-1.95268 h 0.82407 v 1.04352 H 142.131 Z"
           id="path11576" />
        <path
           d="m 145.20075,195.03201 v 1.42421 h 1.6974 v 0.64044 h -1.6974 v 2.723 q 0,0.61357 0.16571,0.78824 0.17019,0.17467 0.68523,0.17467 h 0.84646 v 0.6897 h -0.84646 q -0.95394,0 -1.31671,-0.35381 -0.36277,-0.35829 -0.36277,-1.2988 v -2.723 h -0.60461 v -0.64044 h 0.60461 v -1.42421 z"
           id="path11578" />
        <path
           d="m 151.20591,200.71091 h 3.15743 v 0.76136 h -4.24573 v -0.76136 q 0.51504,-0.53296 1.40181,-1.42868 0.89124,-0.90021 1.11965,-1.15997 0.43443,-0.48817 0.60462,-0.82406 0.17466,-0.34038 0.17466,-0.66732 0,-0.53295 -0.3762,-0.86885 -0.37173,-0.3359 -0.97186,-0.3359 -0.42547,0 -0.9002,0.1478 -0.47026,0.14779 -1.00769,0.44786 v -0.91364 q 0.54639,-0.21945 1.02112,-0.33142 0.47474,-0.11196 0.86885,-0.11196 1.03905,0 1.6571,0.51952 0.61805,0.51952 0.61805,1.38837 0,0.41203 -0.15676,0.78376 -0.15227,0.36725 -0.55982,0.86885 -0.11197,0.12988 -0.71211,0.75241 -0.60013,0.61805 -1.69292,1.73323 z"
           id="path11580" />
        <path
           d="m 157.90336,195.38135 q -0.69866,0 -1.05248,0.68971 -0.34933,0.68522 -0.34933,2.06464 0,1.37494 0.34933,2.06465 0.35382,0.68523 1.05248,0.68523 0.70315,0 1.05248,-0.68523 0.35381,-0.68971 0.35381,-2.06465 0,-1.37942 -0.35381,-2.06464 -0.34933,-0.68971 -1.05248,-0.68971 z m 0,-0.71658 q 1.12414,0 1.71531,0.89124 0.59566,0.88677 0.59566,2.57969 0,1.68844 -0.59566,2.57969 -0.59117,0.88676 -1.71531,0.88676 -1.12413,0 -1.71979,-0.88676 -0.59118,-0.89125 -0.59118,-2.57969 0,-1.69292 0.59118,-2.57969 0.59566,-0.89124 1.71979,-0.89124 z"
           id="path11582" />
        <path
           d="m 163.44532,195.38135 q -0.69867,0 -1.05248,0.68971 -0.34933,0.68522 -0.34933,2.06464 0,1.37494 0.34933,2.06465 0.35381,0.68523 1.05248,0.68523 0.70314,0 1.05247,-0.68523 0.35381,-0.68971 0.35381,-2.06465 0,-1.37942 -0.35381,-2.06464 -0.34933,-0.68971 -1.05247,-0.68971 z m 0,-0.71658 q 1.12413,0 1.71531,0.89124 0.59565,0.88677 0.59565,2.57969 0,1.68844 -0.59565,2.57969 -0.59118,0.88676 -1.71531,0.88676 -1.12414,0 -1.7198,-0.88676 -0.59117,-0.89125 -0.59117,-2.57969 0,-1.69292 0.59117,-2.57969 0.59566,-0.89124 1.7198,-0.89124 z"
           id="path11584" />
        <path
           d="m 169.09924,197.76845 q -0.60909,0 -0.96738,0.41652 -0.35381,0.41651 -0.35381,1.14204 0,0.72106 0.35381,1.14205 0.35829,0.41652 0.96738,0.41652 0.6091,0 0.96291,-0.41652 0.35829,-0.42099 0.35829,-1.14205 0,-0.72553 -0.35829,-1.14204 -0.35381,-0.41652 -0.96291,-0.41652 z m 1.79593,-2.83497 v 0.82407 q -0.34037,-0.16123 -0.68971,-0.24632 -0.34485,-0.0851 -0.68523,-0.0851 -0.89572,0 -1.37046,0.60462 -0.47025,0.60461 -0.53743,1.82728 0.26424,-0.38964 0.66284,-0.59566 0.39859,-0.2105 0.87781,-0.2105 1.00769,0 1.58991,0.61358 0.5867,0.60909 0.5867,1.66156 0,1.03009 -0.6091,1.65262 -0.60909,0.62252 -1.62126,0.62252 -1.15996,0 -1.77353,-0.88676 -0.61357,-0.89125 -0.61357,-2.57969 0,-1.58543 0.75241,-2.52594 0.7524,-0.94499 2.01985,-0.94499 0.34038,0 0.68523,0.0672 0.34934,0.0672 0.72554,0.20153 z"
           id="path11586" />
      </g>
    </g>
  </g>
</svg>
