<?xml version="1.0" encoding="UTF-8" standalone="no"?>
<svg
   xmlns:dc="http://purl.org/dc/elements/1.1/"
   xmlns:cc="http://creativecommons.org/ns#"
   xmlns:rdf="http://www.w3.org/1999/02/22-rdf-syntax-ns#"
   xmlns:svg="http://www.w3.org/2000/svg"
   xmlns="http://www.w3.org/2000/svg"
   xmlns:sodipodi="http://sodipodi.sourceforge.net/DTD/sodipodi-0.dtd"
   xmlns:inkscape="http://www.inkscape.org/namespaces/inkscape"
   width="158.51878mm"
   height="34.417542mm"
   viewBox="0 0 158.51878 34.417542"
   version="1.1"
   id="svg8"
   inkscape:version="1.0.2-2 (e86c870879, 2021-01-15)"
   sodipodi:docname="tagaro-text.svg">
  <defs
     id="defs2" />
  <sodipodi:namedview
     id="base"
     pagecolor="#616161"
     bordercolor="#000000"
     borderopacity="1"
     inkscape:pageopacity="0"
     inkscape:pageshadow="2"
     inkscape:zoom="1.4"
     inkscape:cx="253.19379"
     inkscape:cy="62.348802"
     inkscape:document-units="mm"
     inkscape:current-layer="layer1"
     inkscape:document-rotation="0"
     showgrid="false"
     fit-margin-top="0"
     fit-margin-left="0"
     fit-margin-right="0"
     fit-margin-bottom="0"
     inkscape:window-width="1920"
     inkscape:window-height="1009"
     inkscape:window-x="-8"
     inkscape:window-y="62"
     inkscape:window-maximized="1" />
  <metadata
     id="metadata5">
    <rdf:RDF>
      <cc:Work
         rdf:about="">
        <dc:format>image/svg+xml</dc:format>
        <dc:type
           rdf:resource="http://purl.org/dc/dcmitype/StillImage" />
        <dc:title></dc:title>
      </cc:Work>
    </rdf:RDF>
  </metadata>
  <g
     inkscape:label="Layer 1"
     inkscape:groupmode="layer"
     id="layer1"
     transform="translate(-28.600847,-112.89103)">
    <path
       id="ellipse867"
       style="fill:#ffffff;fill-opacity:1;stroke:#000000;stroke-width:0;stroke-linecap:square;stroke-linejoin:round;stroke-miterlimit:4;stroke-dasharray:none;stroke-opacity:1;paint-order:markers fill stroke"
       d="M 533.87891 11.357422 A 54.301127 52.409208 0 0 0 479.86523 63.765625 A 54.301127 52.409208 0 0 0 534.16602 116.17578 A 54.301127 52.409208 0 0 0 588.4668 63.765625 A 54.301127 52.409208 0 0 0 534.16602 11.357422 A 54.301127 52.409208 0 0 0 533.87891 11.357422 z M 534.16602 29.984375 A 31.582586 33.781463 0 0 1 565.74805 63.765625 A 31.582586 33.781463 0 0 1 534.16602 97.546875 A 31.582586 33.781463 0 0 1 502.58398 63.765625 A 31.582586 33.781463 0 0 1 534.16602 29.984375 z "
       transform="matrix(0.26458333,0,0,0.26458333,28.600847,112.89103)" />
    <path
       style="fill:#ffffff;stroke:#000000;stroke-width:0;stroke-linecap:butt;stroke-linejoin:miter;stroke-opacity:1;fill-opacity:1;stroke-miterlimit:4;stroke-dasharray:none"
       d="m 33.561784,116.36369 h 21.213914 c 0,0 1.299294,5.1263 -2.007999,5.1263 -3.307291,0 -6.543712,0 -6.543712,0 V 141.192 c 0,0 0.330729,3.35454 -6.000372,1.93712 l 0,-21.63535 h -8.61077 c 0,0 -1.464659,-5.13008 1.948939,-5.13008 z"
       id="path847" />
    <path
       id="path849"
       style="fill:#ffffff;fill-opacity:1;stroke:#000000;stroke-width:0;stroke-linecap:butt;stroke-linejoin:miter;stroke-opacity:1;stroke-miterlimit:4;stroke-dasharray:none"
       d="M 130.23047 12.273438 C 126.56712 12.283357 122.1417 12.796846 116.79883 14.046875 L 79.375 112.8125 C 79.375 112.8125 99.061944 121.1155 103.34766 109.59766 L 110.9375 88.927734 L 150 89.017578 L 157.76758 109.82227 C 157.76758 109.82227 161.16015 120.57952 182.09766 112.67773 L 147.67773 21.652344 C 147.67773 21.652344 146.10497 12.230455 130.23047 12.273438 z M 130.53516 35.333984 L 143.47266 70.332031 L 117.68359 70.332031 L 130.53516 35.333984 z "
       transform="matrix(0.26458333,0,0,0.26458333,28.600847,112.89103)" />
    <path
       style="fill:#ffffff;stroke:#000000;stroke-width:0;stroke-linecap:butt;stroke-linejoin:miter;stroke-opacity:1;fill-opacity:1;stroke-miterlimit:4;stroke-dasharray:none"
       d="m 100.77197,118.31994 c 0,0 0.72169,5.18308 -4.017394,4.02575 -8.447445,-2.5939 -14.747089,-0.0358 -14.859086,7.83775 -0.111997,7.87358 9.876683,9.77181 13.856826,7.3465 v -7.67723 c 6.348624,-1.45418 5.797934,2.36235 5.797934,2.36235 v 8.53047 c -8.876196,5.87118 -25.867744,3.29311 -25.867744,-11.06999 0,-14.3631 16.975506,-15.53021 25.089464,-11.3556 z"
       id="path853"
       sodipodi:nodetypes="cczcccczc" />
    <path
       id="path857"
       style="fill:#ffffff;fill-opacity:1;stroke:#000000;stroke-width:0;stroke-linecap:butt;stroke-linejoin:miter;stroke-opacity:1;stroke-miterlimit:4;stroke-dasharray:none"
       d="M 333.34961 12.46875 C 324.47921 12.46875 319.72852 14.03125 319.72852 14.03125 L 282.39062 112.64258 C 294.76941 118.87895 304.44854 115.21466 306.26562 109.72656 L 313.71484 88.955078 L 352.92188 88.925781 C 352.92188 88.925781 356.94782 99.850028 360.5293 109.66406 C 364.11078 119.4781 379.39941 115.29294 385.06836 112.87695 C 385.06836 112.87695 352.22756 26.327169 349.79688 20.203125 C 347.3175 13.956397 342.22001 12.46875 333.34961 12.46875 z M 333.41406 35.386719 L 346.35547 70.333984 L 320.56641 70.363281 L 333.41406 35.386719 z "
       transform="matrix(0.26458333,0,0,0.26458333,28.600847,112.89103)" />
    <path
       id="path861"
       style="fill:#ffffff;fill-opacity:1;stroke:#000000;stroke-width:0;stroke-linecap:butt;stroke-linejoin:miter;stroke-opacity:1;stroke-miterlimit:4;stroke-dasharray:none"
       d="M 402.4668 12.990234 C 391.6242 12.990234 392.28711 21.8125 392.28711 21.8125 L 392.28711 114.26367 C 392.28711 114.26367 397.81278 115.55859 403.16992 115.55859 C 408.52706 115.55859 414.97461 113.35824 414.97461 106.49609 L 414.97461 77.591797 L 419.15039 77.591797 C 419.15039 77.591797 436.67709 97.807487 444.8457 107.48633 C 453.01432 117.16517 463.57732 117.77961 476.91992 111.22852 L 444.43555 76.234375 C 461.84734 72.100252 471.69727 63.015404 471.69727 45.044922 C 471.69727 27.07444 459.05503 12.990234 433.52734 12.990234 L 402.4668 12.990234 z M 433.12109 32.492188 C 436.29927 32.455748 449.01367 33.082674 449.01367 45.457031 C 449.01367 59.599154 431.01953 58.966797 431.01953 58.966797 L 414.91992 59.03125 L 414.91992 32.515625 L 432.4082 32.515625 C 432.4082 32.515625 432.66707 32.497393 433.12109 32.492188 z "
       transform="matrix(0.26458333,0,0,0.26458333,28.600847,112.89103)" />
  </g>
</svg>
