<?xml version="1.0" encoding="UTF-8" standalone="no"?>
<svg
   xmlns:dc="http://purl.org/dc/elements/1.1/"
   xmlns:cc="http://creativecommons.org/ns#"
   xmlns:rdf="http://www.w3.org/1999/02/22-rdf-syntax-ns#"
   xmlns:svg="http://www.w3.org/2000/svg"
   xmlns="http://www.w3.org/2000/svg"
   xmlns:xlink="http://www.w3.org/1999/xlink"
   xmlns:sodipodi="http://sodipodi.sourceforge.net/DTD/sodipodi-0.dtd"
   xmlns:inkscape="http://www.inkscape.org/namespaces/inkscape"
   width="169.38206mm"
   height="168.96446mm"
   viewBox="0 0 169.38206 168.96446"
   version="1.1"
   id="svg8"
   inkscape:version="1.0.2-2 (e86c870879, 2021-01-15)"
   sodipodi:docname="tagaro-back.svg">
  <defs
     id="defs2">
    <linearGradient
       inkscape:collect="always"
       id="linearGradient875">
      <stop
         style="stop-color:#e59c0c;stop-opacity:1"
         offset="0"
         id="stop871" />
      <stop
         style="stop-color:#ee7a0c;stop-opacity:1"
         offset="0.11767238"
         id="stop881" />
      <stop
         style="stop-color:#e94e15;stop-opacity:1"
         offset="0.21146119"
         id="stop883" />
      <stop
         style="stop-color:#e52512;stop-opacity:1"
         offset="0.2929689"
         id="stop885" />
      <stop
         style="stop-color:#df0b13;stop-opacity:1"
         offset="0.41885954"
         id="stop897" />
      <stop
         style="stop-color:#dd015b;stop-opacity:1"
         offset="0.53860754"
         id="stop879" />
      <stop
         style="stop-color:#be217c;stop-opacity:1"
         offset="0.63016748"
         id="stop887" />
      <stop
         style="stop-color:#98318a;stop-opacity:1"
         offset="0.70134836"
         id="stop895" />
      <stop
         style="stop-color:#643089;stop-opacity:1"
         offset="0.78425366"
         id="stop891" />
      <stop
         style="stop-color:#384297;stop-opacity:1"
         offset="0.85682994"
         id="stop889" />
      <stop
         style="stop-color:#0b73be;stop-opacity:1"
         offset="0.94727069"
         id="stop893" />
      <stop
         style="stop-color:#007ec7;stop-opacity:1"
         offset="1"
         id="stop873" />
    </linearGradient>
    <linearGradient
       inkscape:collect="always"
       xlink:href="#linearGradient875"
       id="linearGradient877"
       x1="19.944988"
       y1="47.106255"
       x2="189.3654"
       y2="216.28795"
       gradientUnits="userSpaceOnUse" />
  </defs>
  <sodipodi:namedview
     id="base"
     pagecolor="#ffffff"
     bordercolor="#666666"
     borderopacity="0"
     inkscape:pageopacity="0.0"
     inkscape:pageshadow="2"
     inkscape:zoom="0.7"
     inkscape:cx="226.16673"
     inkscape:cy="343.81427"
     inkscape:document-units="mm"
     inkscape:current-layer="layer1"
     inkscape:document-rotation="0"
     showgrid="false"
     fit-margin-top="0"
     fit-margin-left="0"
     fit-margin-right="0"
     fit-margin-bottom="0"
     inkscape:window-width="1920"
     inkscape:window-height="1009"
     inkscape:window-x="1912"
     inkscape:window-y="-8"
     inkscape:window-maximized="1" />
  <metadata
     id="metadata5">
    <rdf:RDF>
      <cc:Work
         rdf:about="">
        <dc:format>image/svg+xml</dc:format>
        <dc:type
           rdf:resource="http://purl.org/dc/dcmitype/StillImage" />
        <dc:title></dc:title>
      </cc:Work>
    </rdf:RDF>
  </metadata>
  <g
     inkscape:label="Layer 1"
     inkscape:groupmode="layer"
     id="layer1"
     transform="translate(-19.944987,-47.106254)">
    <path
       style="fill:url(#linearGradient877);fill-opacity:1;stroke:#000000;stroke-width:0;stroke-linecap:butt;stroke-linejoin:miter;stroke-miterlimit:4;stroke-dasharray:none;stroke-opacity:1"
       d="M 19.944988,47.106254 V 209.04113 c 0,5.41499 3.492529,7.02958 6.841012,7.02958 h 155.93383 c 2.93325,0 6.60722,-1.50684 6.60722,-6.23073 V 47.106255 Z"
       id="path869"
       sodipodi:nodetypes="csssscc" />
    <g
       inkscape:label="Layer 1"
       id="layer1-7"
       transform="matrix(0.87860157,0,0,0.87860157,9.8343029,61.763513)">
      <path
         id="ellipse867"
         style="fill:#ffffff;fill-opacity:1;stroke:#000000;stroke-width:0;stroke-linecap:square;stroke-linejoin:round;stroke-miterlimit:4;stroke-dasharray:none;stroke-opacity:1;paint-order:markers fill stroke"
         d="m 533.87891,11.357422 a 54.301127,52.409208 0 0 0 -54.01368,52.408203 54.301127,52.409208 0 0 0 54.30079,52.410155 54.301127,52.409208 0 0 0 54.30078,-52.410155 54.301127,52.409208 0 0 0 -54.30078,-52.408203 54.301127,52.409208 0 0 0 -0.28711,0 z m 0.28711,18.626953 a 31.582586,33.781463 0 0 1 31.58203,33.78125 31.582586,33.781463 0 0 1 -31.58203,33.78125 31.582586,33.781463 0 0 1 -31.58204,-33.78125 31.582586,33.781463 0 0 1 31.58204,-33.78125 z"
         transform="matrix(0.26458333,0,0,0.26458333,28.600847,112.89103)" />
      <path
         style="fill:#ffffff;fill-opacity:1;stroke:#000000;stroke-width:0;stroke-linecap:butt;stroke-linejoin:miter;stroke-miterlimit:4;stroke-dasharray:none;stroke-opacity:1"
         d="m 33.561784,116.36369 h 21.213914 c 0,0 1.299294,5.1263 -2.007999,5.1263 -3.307291,0 -6.543712,0 -6.543712,0 V 141.192 c 0,0 0.330729,3.35454 -6.000372,1.93712 v -21.63535 h -8.61077 c 0,0 -1.464659,-5.13008 1.948939,-5.13008 z"
         id="path847" />
      <path
         id="path849"
         style="fill:#ffffff;fill-opacity:1;stroke:#000000;stroke-width:0;stroke-linecap:butt;stroke-linejoin:miter;stroke-miterlimit:4;stroke-dasharray:none;stroke-opacity:1"
         d="m 130.23047,12.273438 c -3.66335,0.0099 -8.08877,0.523408 -13.43164,1.773437 L 79.375,112.8125 c 0,0 19.686944,8.303 23.97266,-3.21484 l 7.58984,-20.669926 39.0625,0.08984 7.76758,20.804696 c 0,0 3.39257,10.75725 24.33008,2.85546 L 147.67773,21.652344 c 0,0 -1.57276,-9.421889 -17.44726,-9.378906 z m 0.30469,23.060546 12.9375,34.998047 h -25.78907 z"
         transform="matrix(0.26458333,0,0,0.26458333,28.600847,112.89103)" />
      <path
         style="fill:#ffffff;fill-opacity:1;stroke:#000000;stroke-width:0;stroke-linecap:butt;stroke-linejoin:miter;stroke-miterlimit:4;stroke-dasharray:none;stroke-opacity:1"
         d="m 100.77197,118.31994 c 0,0 0.72169,5.18308 -4.017394,4.02575 -8.447445,-2.5939 -14.747089,-0.0358 -14.859086,7.83775 -0.111997,7.87358 9.876683,9.77181 13.856826,7.3465 v -7.67723 c 6.348624,-1.45418 5.797934,2.36235 5.797934,2.36235 v 8.53047 c -8.876196,5.87118 -25.867744,3.29311 -25.867744,-11.06999 0,-14.3631 16.975506,-15.53021 25.089464,-11.3556 z"
         id="path853"
         sodipodi:nodetypes="cczcccczc" />
      <path
         id="path857"
         style="fill:#ffffff;fill-opacity:1;stroke:#000000;stroke-width:0;stroke-linecap:butt;stroke-linejoin:miter;stroke-miterlimit:4;stroke-dasharray:none;stroke-opacity:1"
         d="m 333.34961,12.46875 c -8.8704,0 -13.62109,1.5625 -13.62109,1.5625 l -37.3379,98.61133 c 12.37879,6.23637 22.05792,2.57208 23.875,-2.91602 l 7.44922,-20.771482 39.20704,-0.0293 c 0,0 4.02594,10.924247 7.60742,20.738282 3.58148,9.81404 18.87011,5.62888 24.53906,3.21289 0,0 -32.8408,-86.549784 -35.27148,-92.673828 -2.47938,-6.246728 -7.57687,-7.734375 -16.44727,-7.734375 z m 0.0645,22.917969 12.94141,34.947265 -25.78906,0.0293 z"
         transform="matrix(0.26458333,0,0,0.26458333,28.600847,112.89103)" />
      <path
         id="path861"
         style="fill:#ffffff;fill-opacity:1;stroke:#000000;stroke-width:0;stroke-linecap:butt;stroke-linejoin:miter;stroke-miterlimit:4;stroke-dasharray:none;stroke-opacity:1"
         d="m 402.4668,12.990234 c -10.8426,0 -10.17969,8.822266 -10.17969,8.822266 v 92.45117 c 0,0 5.52567,1.29492 10.88281,1.29492 5.35714,0 11.80469,-2.20035 11.80469,-9.0625 V 77.591797 h 4.17578 c 0,0 17.5267,20.21569 25.69531,29.894533 8.16862,9.67884 18.73162,10.29328 32.07422,3.74219 L 444.43555,76.234375 c 17.41179,-4.134123 27.26172,-13.218971 27.26172,-31.189453 0,-17.970482 -12.64224,-32.054688 -38.16993,-32.054688 z m 30.65429,19.501954 c 3.17818,-0.03644 15.89258,0.590486 15.89258,12.964843 0,14.142123 -17.99414,13.509766 -17.99414,13.509766 l -16.09961,0.06445 V 32.515625 h 17.48828 c 0,0 0.25887,-0.01823 0.71289,-0.02344 z"
         transform="matrix(0.26458333,0,0,0.26458333,28.600847,112.89103)" />
    </g>
    <g
       aria-label="Ihr Sky Abo-Service seit 2006"
       id="text867"
       style="font-style:normal;font-weight:normal;font-size:9.32573px;line-height:1.25;font-family:sans-serif;fill:#ffffff;fill-opacity:1;stroke:none;stroke-width:0.233144">
      <path
         d="m 37.135419,194.88284 h 0.919823 v 6.7985 h -0.919823 z"
         style="fill:#ffffff;fill-opacity:1;stroke-width:0.233144"
         id="path862" />
      <path
         d="m 44.088735,198.60312 v 3.07822 h -0.837859 v -3.0509 q 0,-0.72402 -0.282321,-1.08375 -0.282322,-0.35974 -0.846966,-0.35974 -0.678484,0 -1.070091,0.43259 -0.391608,0.43259 -0.391608,1.17938 v 2.88242 h -0.842412 v -7.08537 h 0.842412 v 2.77768 q 0.300536,-0.45991 0.705805,-0.68759 0.409822,-0.22768 0.942591,-0.22768 0.87884,0 1.329645,0.54643 0.450804,0.54188 0.450804,1.59831 z"
         style="fill:#ffffff;fill-opacity:1;stroke-width:0.233144"
         id="path864" />
      <path
         d="m 48.715171,197.36454 q -0.14116,-0.082 -0.309643,-0.11839 -0.163929,-0.041 -0.364286,-0.041 -0.710359,0 -1.092859,0.46446 -0.377947,0.45991 -0.377947,1.32509 v 2.68662 h -0.842413 v -5.10001 h 0.842413 v 0.79232 q 0.264107,-0.46447 0.68759,-0.68759 0.423483,-0.22768 1.029109,-0.22768 0.08652,0 0.19125,0.0137 0.104733,0.009 0.232233,0.0319 z"
         style="fill:#ffffff;fill-opacity:1;stroke-width:0.233144"
         id="path866" />
      <path
         d="m 56.670275,195.10597 v 0.89705 q -0.523662,-0.25044 -0.988127,-0.37339 -0.464465,-0.12295 -0.897055,-0.12295 -0.75134,0 -1.161163,0.29143 -0.405268,0.29143 -0.405268,0.82875 0,0.45081 0.268661,0.68304 0.273215,0.22768 1.029109,0.36884 l 0.555537,0.11384 q 1.029109,0.1958 1.516342,0.69214 0.491786,0.49179 0.491786,1.32054 0,0.98813 -0.664822,1.49813 -0.660269,0.51 -1.939825,0.51 -0.48268,0 -1.029109,-0.10929 -0.541876,-0.10928 -1.124734,-0.3233 v -0.94715 q 0.56009,0.3142 1.097412,0.47358 0.537323,0.15937 1.056431,0.15937 0.787769,0 1.215805,-0.30964 0.428037,-0.30964 0.428037,-0.8834 0,-0.50089 -0.309644,-0.78321 -0.305089,-0.28232 -1.006341,-0.42348 l -0.56009,-0.10929 q -1.029109,-0.20491 -1.48902,-0.64205 -0.459912,-0.43715 -0.459912,-1.21581 0,-0.90161 0.632948,-1.42072 0.637501,-0.51911 1.753128,-0.51911 0.478126,0 0.974466,0.0865 0.49634,0.0865 1.015448,0.25956 z"
         style="fill:#ffffff;fill-opacity:1;stroke-width:0.233144"
         id="path868" />
      <path
         d="m 58.446171,194.59597 h 0.842412 v 4.18474 l 2.499915,-2.19938 h 1.070091 l -2.704826,2.38607 2.818666,2.71394 H 61.87957 l -2.590987,-2.49081 v 2.49081 h -0.842412 z"
         style="fill:#ffffff;fill-opacity:1;stroke-width:0.233144"
         id="path870" />
      <path
         d="m 65.668148,202.15491 q -0.355179,0.91071 -0.692144,1.18848 -0.336965,0.27777 -0.901609,0.27777 h -0.669376 v -0.70125 h 0.491787 q 0.346072,0 0.537322,-0.16393 0.19125,-0.16393 0.423483,-0.77411 l 0.150268,-0.3825 -2.062771,-5.01804 h 0.887948 l 1.593752,3.98893 1.593753,-3.98893 h 0.887948 z"
         style="fill:#ffffff;fill-opacity:1;stroke-width:0.233144"
         id="path872" />
      <path
         d="m 74.338163,195.789 -1.247681,3.38331 h 2.499915 z m -0.519108,-0.90616 h 1.04277 l 2.590986,6.7985 H 76.49656 l -0.619287,-1.74403 h -3.064559 l -0.619287,1.74403 h -0.969912 z"
         style="fill:#ffffff;fill-opacity:1;stroke-width:0.233144"
         id="path874" />
      <path
         d="m 82.070139,199.13588 q 0,-0.92437 -0.382501,-1.44803 -0.377947,-0.52822 -1.04277,-0.52822 -0.664822,0 -1.047323,0.52822 -0.377947,0.52366 -0.377947,1.44803 0,0.92438 0.377947,1.4526 0.382501,0.52366 1.047323,0.52366 0.664823,0 1.04277,-0.52366 0.382501,-0.52822 0.382501,-1.4526 z m -2.850541,-1.78044 q 0.264108,-0.45536 0.664823,-0.67393 0.405268,-0.22313 0.965358,-0.22313 0.92893,0 1.507235,0.73768 0.582858,0.73768 0.582858,1.93982 0,1.20215 -0.582858,1.93983 -0.578305,0.73768 -1.507235,0.73768 -0.56009,0 -0.965358,-0.21857 -0.400715,-0.22313 -0.664823,-0.67849 v 0.76501 h -0.842412 v -7.08537 h 0.842412 z"
         style="fill:#ffffff;fill-opacity:1;stroke-width:0.233144"
         id="path876" />
      <path
         d="m 86.304969,197.16874 q -0.67393,0 -1.065537,0.52821 -0.391608,0.52367 -0.391608,1.43893 0,0.91527 0.387054,1.44349 0.391608,0.52366 1.070091,0.52366 0.669376,0 1.060984,-0.52821 0.391608,-0.52822 0.391608,-1.43894 0,-0.90616 -0.391608,-1.43437 -0.391608,-0.53277 -1.060984,-0.53277 z m 0,-0.71036 q 1.092859,0 1.716699,0.71036 0.623841,0.71036 0.623841,1.96714 0,1.25224 -0.623841,1.96715 -0.62384,0.71036 -1.716699,0.71036 -1.097413,0 -1.721253,-0.71036 -0.619287,-0.71491 -0.619287,-1.96715 0,-1.25678 0.619287,-1.96714 0.62384,-0.71036 1.721253,-0.71036 z"
         style="fill:#ffffff;fill-opacity:1;stroke-width:0.233144"
         id="path878" />
      <path
         d="m 89.783903,198.75338 h 2.454379 v 0.74679 h -2.454379 z"
         style="fill:#ffffff;fill-opacity:1;stroke-width:0.233144"
         id="path880" />
      <path
         d="m 97.684365,195.10597 v 0.89705 q -0.523662,-0.25044 -0.988127,-0.37339 -0.464465,-0.12295 -0.897055,-0.12295 -0.751341,0 -1.161163,0.29143 -0.405269,0.29143 -0.405269,0.82875 0,0.45081 0.268662,0.68304 0.273214,0.22768 1.029109,0.36884 l 0.555536,0.11384 q 1.029109,0.1958 1.516342,0.69214 0.491787,0.49179 0.491787,1.32054 0,0.98813 -0.664823,1.49813 -0.660269,0.51 -1.939825,0.51 -0.482679,0 -1.029109,-0.10929 -0.541876,-0.10928 -1.124734,-0.3233 v -0.94715 q 0.560091,0.3142 1.097413,0.47358 0.537322,0.15937 1.05643,0.15937 0.78777,0 1.215806,-0.30964 0.428036,-0.30964 0.428036,-0.8834 0,-0.50089 -0.309643,-0.78321 -0.30509,-0.28232 -1.006341,-0.42348 l -0.56009,-0.10929 q -1.029109,-0.20491 -1.489021,-0.64205 -0.459911,-0.43715 -0.459911,-1.21581 0,-0.90161 0.632947,-1.42072 0.637501,-0.51911 1.753128,-0.51911 0.478126,0 0.974466,0.0865 0.49634,0.0865 1.015449,0.25956 z"
         style="fill:#ffffff;fill-opacity:1;stroke-width:0.233144"
         id="path882" />
      <path
         d="m 103.85446,198.92187 v 0.40982 h -3.85233 q 0.0547,0.86518 0.51911,1.32054 0.46902,0.4508 1.30233,0.4508 0.48268,0 0.93348,-0.11839 0.45536,-0.1184 0.90161,-0.35518 v 0.79232 q -0.45081,0.19125 -0.92438,0.29143 -0.47357,0.10018 -0.9608,0.10018 -1.22036,0 -1.935274,-0.71036 -0.710359,-0.71036 -0.710359,-1.92161 0,-1.25223 0.67393,-1.98536 0.678483,-0.73768 1.825983,-0.73768 1.02911,0 1.62563,0.66482 0.60107,0.66027 0.60107,1.79867 z m -0.83786,-0.2459 q -0.009,-0.68759 -0.38705,-1.09741 -0.37339,-0.40982 -0.99268,-0.40982 -0.70125,0 -1.12473,0.39616 -0.41893,0.39616 -0.48268,1.11563 z"
         style="fill:#ffffff;fill-opacity:1;stroke-width:0.233144"
         id="path884" />
      <path
         d="m 108.18492,197.36454 q -0.14116,-0.082 -0.30965,-0.11839 -0.16393,-0.041 -0.36428,-0.041 -0.71036,0 -1.09286,0.46446 -0.37795,0.45991 -0.37795,1.32509 v 2.68662 h -0.84241 v -5.10001 h 0.84241 v 0.79232 q 0.26411,-0.46447 0.68759,-0.68759 0.42348,-0.22768 1.02911,-0.22768 0.0865,0 0.19125,0.0137 0.10473,0.009 0.23223,0.0319 z"
         style="fill:#ffffff;fill-opacity:1;stroke-width:0.233144"
         id="path886" />
      <path
         d="m 108.46269,196.58133 h 0.88794 l 1.59376,4.28036 1.59375,-4.28036 h 0.88795 l -1.91251,5.10001 h -1.13839 z"
         style="fill:#ffffff;fill-opacity:1;stroke-width:0.233144"
         id="path888" />
      <path
         d="m 114.58269,196.58133 h 0.83786 v 5.10001 h -0.83786 z m 0,-1.98536 h 0.83786 v 1.06098 h -0.83786 z"
         style="fill:#ffffff;fill-opacity:1;stroke-width:0.233144"
         id="path890" />
      <path
         d="m 120.84387,196.77713 v 0.78322 q -0.35518,-0.19581 -0.71491,-0.29143 -0.35518,-0.10018 -0.71947,-0.10018 -0.81509,0 -1.2659,0.51911 -0.4508,0.51455 -0.4508,1.44803 0,0.93349 0.4508,1.4526 0.45081,0.51455 1.2659,0.51455 0.36429,0 0.71947,-0.0956 0.35973,-0.10018 0.71491,-0.29599 v 0.77411 q -0.35063,0.16393 -0.72858,0.24589 -0.37339,0.082 -0.79687,0.082 -1.15206,0 -1.83054,-0.72402 -0.67848,-0.72402 -0.67848,-1.95349 0,-1.24768 0.68303,-1.96259 0.68759,-0.71491 1.88063,-0.71491 0.38706,0 0.7559,0.082 0.36884,0.0774 0.71491,0.23679 z"
         style="fill:#ffffff;fill-opacity:1;stroke-width:0.233144"
         id="path892" />
      <path
         d="m 126.66334,198.92187 v 0.40982 h -3.85233 q 0.0546,0.86518 0.51911,1.32054 0.46902,0.4508 1.30232,0.4508 0.48268,0 0.93349,-0.11839 0.45535,-0.1184 0.9016,-0.35518 v 0.79232 q -0.4508,0.19125 -0.92437,0.29143 -0.47357,0.10018 -0.96081,0.10018 -1.22036,0 -1.93527,-0.71036 -0.71036,-0.71036 -0.71036,-1.92161 0,-1.25223 0.67393,-1.98536 0.67849,-0.73768 1.82599,-0.73768 1.02911,0 1.62563,0.66482 0.60107,0.66027 0.60107,1.79867 z m -0.83786,-0.2459 q -0.009,-0.68759 -0.38705,-1.09741 -0.3734,-0.40982 -0.99268,-0.40982 -0.70126,0 -1.12474,0.39616 -0.41893,0.39616 -0.48268,1.11563 z"
         style="fill:#ffffff;fill-opacity:1;stroke-width:0.233144"
         id="path894" />
      <path
         d="m 134.25415,196.73159 v 0.79233 q -0.35518,-0.18215 -0.73768,-0.27322 -0.3825,-0.0911 -0.79232,-0.0911 -0.62384,0 -0.93804,0.19125 -0.30964,0.19125 -0.30964,0.57375 0,0.29143 0.22313,0.45991 0.22312,0.16393 0.89705,0.3142 l 0.28688,0.0638 q 0.8925,0.19125 1.26589,0.54188 0.37795,0.34607 0.37795,0.96991 0,0.71036 -0.56464,1.12473 -0.5601,0.41438 -1.54367,0.41438 -0.40982,0 -0.85607,-0.082 -0.4417,-0.0774 -0.93348,-0.23678 v -0.86518 q 0.46446,0.24134 0.91526,0.36428 0.45081,0.1184 0.89251,0.1184 0.59196,0 0.91071,-0.20036 0.31875,-0.20491 0.31875,-0.57375 0,-0.34152 -0.23223,-0.52366 -0.22768,-0.18215 -1.00634,-0.35063 l -0.29143,-0.0683 q -0.77866,-0.16393 -1.12473,-0.5009 -0.34608,-0.34151 -0.34608,-0.93348 0,-0.71946 0.51,-1.11107 0.51001,-0.39161 1.44804,-0.39161 0.46447,0 0.87429,0.0683 0.40982,0.0683 0.75589,0.20491 z"
         style="fill:#ffffff;fill-opacity:1;stroke-width:0.233144"
         id="path896" />
      <path
         d="m 140.2239,198.92187 v 0.40982 h -3.85233 q 0.0547,0.86518 0.51911,1.32054 0.46902,0.4508 1.30232,0.4508 0.48268,0 0.93349,-0.11839 0.45536,-0.1184 0.90161,-0.35518 v 0.79232 q -0.45081,0.19125 -0.92438,0.29143 -0.47357,0.10018 -0.96081,0.10018 -1.22035,0 -1.93527,-0.71036 -0.71035,-0.71036 -0.71035,-1.92161 0,-1.25223 0.67393,-1.98536 0.67848,-0.73768 1.82598,-0.73768 1.02911,0 1.62563,0.66482 0.60107,0.66027 0.60107,1.79867 z m -0.83786,-0.2459 q -0.009,-0.68759 -0.38705,-1.09741 -0.3734,-0.40982 -0.99268,-0.40982 -0.70125,0 -1.12474,0.39616 -0.41893,0.39616 -0.48268,1.11563 z"
         style="fill:#ffffff;fill-opacity:1;stroke-width:0.233144"
         id="path898" />
      <path
         d="m 141.59908,196.58133 h 0.83786 v 5.10001 h -0.83786 z m 0,-1.98536 h 0.83786 v 1.06098 h -0.83786 z"
         style="fill:#ffffff;fill-opacity:1;stroke-width:0.233144"
         id="path900" />
      <path
         d="m 145.01882,195.13329 v 1.44804 h 1.72581 v 0.65116 h -1.72581 v 2.76857 q 0,0.62385 0.16848,0.80143 0.17304,0.17759 0.6967,0.17759 h 0.86063 v 0.70126 H 145.884 q -0.96991,0 -1.33875,-0.35974 -0.36884,-0.36428 -0.36884,-1.32054 v -2.76857 h -0.61473 v -0.65116 h 0.61473 v -1.44804 z"
         style="fill:#ffffff;fill-opacity:1;stroke-width:0.233144"
         id="path902" />
      <path
         d="m 151.72169,200.90723 h 3.21027 v 0.77411 h -4.31679 v -0.77411 q 0.52366,-0.54188 1.42527,-1.45259 0.90616,-0.91527 1.13839,-1.17938 0.4417,-0.49634 0.61474,-0.83786 0.17759,-0.34607 0.17759,-0.67848 0,-0.54188 -0.3825,-0.8834 -0.37795,-0.34152 -0.98813,-0.34152 -0.43259,0 -0.91527,0.15027 -0.47813,0.15027 -1.02455,0.45536 v -0.92893 q 0.55553,-0.22313 1.03821,-0.33697 0.48268,-0.11384 0.8834,-0.11384 1.05643,0 1.68482,0.52822 0.62839,0.52822 0.62839,1.41161 0,0.41893 -0.15937,0.79688 -0.15482,0.37339 -0.5692,0.88339 -0.11384,0.13205 -0.72402,0.765 -0.61018,0.6284 -1.72125,1.76224 z"
         style="fill:#ffffff;fill-opacity:1;stroke-width:0.233144"
         id="path904" />
      <path
         d="m 158.82982,195.48847 q -0.71035,0 -1.07009,0.70125 -0.35518,0.6967 -0.35518,2.0992 0,1.39795 0.35518,2.0992 0.35974,0.6967 1.07009,0.6967 0.71492,0 1.0701,-0.6967 0.35973,-0.70125 0.35973,-2.0992 0,-1.4025 -0.35973,-2.0992 -0.35518,-0.70125 -1.0701,-0.70125 z m 0,-0.72858 q 1.14295,0 1.74403,0.90617 0.60562,0.90161 0.60562,2.62286 0,1.7167 -0.60562,2.62286 -0.60108,0.90161 -1.74403,0.90161 -1.14294,0 -1.74857,-0.90161 -0.60107,-0.90616 -0.60107,-2.62286 0,-1.72125 0.60107,-2.62286 0.60563,-0.90617 1.74857,-0.90617 z"
         style="fill:#ffffff;fill-opacity:1;stroke-width:0.233144"
         id="path906" />
      <path
         d="m 164.76314,195.48847 q -0.71036,0 -1.0701,0.70125 -0.35517,0.6967 -0.35517,2.0992 0,1.39795 0.35517,2.0992 0.35974,0.6967 1.0701,0.6967 0.71491,0 1.07009,-0.6967 0.35973,-0.70125 0.35973,-2.0992 0,-1.4025 -0.35973,-2.0992 -0.35518,-0.70125 -1.07009,-0.70125 z m 0,-0.72858 q 1.14294,0 1.74402,0.90617 0.60562,0.90161 0.60562,2.62286 0,1.7167 -0.60562,2.62286 -0.60108,0.90161 -1.74402,0.90161 -1.14295,0 -1.74858,-0.90161 -0.60107,-0.90616 -0.60107,-2.62286 0,-1.72125 0.60107,-2.62286 0.60563,-0.90617 1.74858,-0.90617 z"
         style="fill:#ffffff;fill-opacity:1;stroke-width:0.233144"
         id="path908" />
      <path
         d="m 170.81029,197.91553 q -0.61929,0 -0.98358,0.42348 -0.35973,0.42348 -0.35973,1.16116 0,0.73313 0.35973,1.16116 0.36429,0.42349 0.98358,0.42349 0.61928,0 0.97902,-0.42349 0.36428,-0.42803 0.36428,-1.16116 0,-0.73768 -0.36428,-1.16116 -0.35974,-0.42348 -0.97902,-0.42348 z m 1.82598,-2.88242 v 0.83786 q -0.34607,-0.16393 -0.70125,-0.25045 -0.35062,-0.0865 -0.6967,-0.0865 -0.91071,0 -1.39339,0.61474 -0.47813,0.61473 -0.54643,1.85786 0.26866,-0.39616 0.67393,-0.60563 0.40527,-0.21402 0.8925,-0.21402 1.02455,0 1.61652,0.62384 0.59652,0.61929 0.59652,1.68938 0,1.04732 -0.61929,1.68027 -0.61928,0.63295 -1.64839,0.63295 -1.17938,0 -1.80322,-0.90161 -0.62384,-0.90616 -0.62384,-2.62286 0,-1.61197 0.765,-2.56822 0.765,-0.96081 2.05366,-0.96081 0.34608,0 0.6967,0.0683 0.35518,0.0683 0.73768,0.20491 z"
         style="fill:#ffffff;fill-opacity:1;stroke-width:0.233144"
         id="path910" />
    </g>
  </g>
</svg>
